<mxfile host="app.diagrams.net" modified="2023-12-05T19:46:53.358Z" agent="Mozilla/5.0 (Macintosh; Intel Mac OS X 10_15_7) AppleWebKit/605.1.15 (KHTML, like Gecko) Version/16.3 Safari/605.1.15" version="22.1.5" etag="iJcZngDeoAufkR7BdEtb" type="github">
  <diagram name="Page-1" id="KT9r6RxJ-rXNGhDBqwan">
    <mxGraphModel>
      <root>
        <mxCell id="0" />
        <mxCell id="1" parent="0" />
      </root>
    </mxGraphModel>
  </diagram>
</mxfile>
